<?xml version="1.0" encoding="UTF-8"?>
<svg width="24px" height="24px" viewBox="0 0 24 24" version="1.1" xmlns="http://www.w3.org/2000/svg" xmlns:xlink="http://www.w3.org/1999/xlink">
    <title>Group 4</title>
    <g id="Page-1" stroke="none" stroke-width="1" fill="none" fill-rule="evenodd">
        <g id="Group">
            <rect id="Rectangle" x="0" y="0" width="24" height="24"></rect>
            <g id="Group-11" transform="translate(3.000000, 5.000000)">
                <path d="M6,1 L17,1 M6,7 L17,7 M6,13 L17,13" id="Shape" stroke="#000000" stroke-width="2" stroke-linecap="round" stroke-linejoin="round"></path>
                <path d="M1,2 C1.55228475,2 2,1.55228475 2,1 C2,0.44771525 1.55228475,0 1,0 C0.44771525,0 0,0.44771525 0,1 C0,1.55228475 0.44771525,2 1,2 Z M1,8 C1.55228475,8 2,7.55228475 2,7 C2,6.44771525 1.55228475,6 1,6 C0.44771525,6 0,6.44771525 0,7 C0,7.55228475 0.44771525,8 1,8 Z M1,14 C1.55228475,14 2,13.5522847 2,13 C2,12.4477153 1.55228475,12 1,12 C0.44771525,12 0,12.4477153 0,13 C0,13.5522847 0.44771525,14 1,14 Z" id="Combined-Shape" fill="#000000"></path>
            </g>
        </g>
    </g>
</svg>