<?xml version="1.0" encoding="UTF-8"?>
<svg width="32px" height="32px" viewBox="0 0 32 32" version="1.1" xmlns="http://www.w3.org/2000/svg" xmlns:xlink="http://www.w3.org/1999/xlink">
    <title>Group</title>
    <g id="Page-1" stroke="none" stroke-width="1" fill="none" fill-rule="evenodd">
        <g id="Desktop-HD-Copy-3" transform="translate(-704.000000, -974.000000)">
            <g id="Group" transform="translate(704.000000, 974.000000)">
                <rect id="Rectangle" x="0" y="0" width="32" height="32"></rect>
                <path d="M24.6012785,7.41237434 C24.3461829,7.15675515 23.9998846,7.01310568 23.6387545,7.01310568 C23.2776244,7.01310568 22.9313261,7.15675515 22.6762305,7.41237434 L16,14.074952 L9.32376956,7.39872152 C8.97989285,7.0548448 8.47868162,6.92054565 8.00893729,7.04641326 C7.53919296,7.17228087 7.17228087,7.53919296 7.04641326,8.00893729 C6.92054565,8.47868162 7.0548448,8.97989285 7.39872152,9.32376956 L14.074952,16 L7.39872152,22.6762305 C7.05484481,23.0201072 6.92054567,23.5213184 7.04641328,23.9910627 C7.17228089,24.460807 7.53919297,24.8277191 8.0089373,24.9535867 C8.47868162,25.0794543 8.97989285,24.9451552 9.32376956,24.6012785 L16,17.925048 L22.6762305,24.6012785 C23.0201072,24.9451552 23.5213184,25.0794543 23.9910627,24.9535867 C24.460807,24.8277191 24.8277191,24.460807 24.9535867,23.9910627 C25.0794543,23.5213184 24.9451552,23.0201072 24.6012785,22.6762305 L17.925048,16 L24.6012785,9.32376956 C25.1200858,8.80496229 25.1200858,7.93118162 24.6012785,7.41237434" id="Path" fill="#D92D20" fill-rule="nonzero"></path>
            </g>
        </g>
    </g>
</svg>