<svg width="32" height="32" viewBox="0 0 32 32" fill="none" xmlns="http://www.w3.org/2000/svg">
<path fill-rule="evenodd" clip-rule="evenodd" d="M16 1.33333C16.7364 1.33333 17.3333 1.93029 17.3333 2.66667V4.50929L18.0704 4.14076C18.729 3.81144 19.5299 4.07841 19.8592 4.73705C20.1886 5.39569 19.9216 6.19658 19.263 6.5259L17.3333 7.49071V10.5608L20.0532 12.1202L22.7023 10.5907L22.5731 8.43724C22.5289 7.70218 23.089 7.07053 23.8241 7.0264C24.5592 6.98227 25.1908 7.54237 25.2349 8.27743L25.2843 9.09993L26.88 8.17864C27.5177 7.81044 28.3332 8.02893 28.7014 8.66665C29.0696 9.30437 28.8511 10.1198 28.2134 10.488L26.6177 11.4093L27.3053 11.8633C27.9198 12.269 28.0891 13.0961 27.6834 13.7106C27.2776 14.3252 26.4506 14.4944 25.836 14.0887L24.0357 12.9001L21.3769 14.4352L21.386 17.5701L24.0357 19.0999L25.836 17.9113C26.4506 17.5056 27.2776 17.6748 27.6834 18.2894C28.0891 18.9039 27.9198 19.731 27.3053 20.1367L26.6177 20.5907L28.2134 21.512C28.8511 21.8802 29.0696 22.6956 28.7014 23.3333C28.3332 23.9711 27.5177 24.1896 26.88 23.8214L25.2843 22.9001L25.2349 23.7226C25.1908 24.4576 24.5592 25.0177 23.8241 24.9736C23.089 24.9295 22.5289 24.2978 22.5731 23.5628L22.7023 21.4093L20.0436 19.8742L17.3333 21.4496V24.5093L19.263 25.4741C19.9216 25.8034 20.1886 26.6043 19.8592 27.263C19.5299 27.9216 18.729 28.1886 18.0704 27.8592L17.3333 27.4907V29.3333C17.3333 30.0697 16.7364 30.6667 16 30.6667C15.2636 30.6667 14.6667 30.0697 14.6667 29.3333V27.4907L13.9296 27.8592C13.271 28.1886 12.4701 27.9216 12.1408 27.263C11.8114 26.6043 12.0784 25.8034 12.737 25.4741L14.6667 24.5093V21.4392L11.9468 19.8798L9.29765 21.4093L9.42694 23.5628C9.47107 24.2978 8.91096 24.9295 8.1759 24.9736C7.44085 25.0177 6.80919 24.4576 6.76506 23.7226L6.71568 22.9001L5.12001 23.8214C4.4823 24.1896 3.66684 23.9711 3.29864 23.3333C2.93044 22.6956 3.14893 21.8802 3.78665 21.512L5.38232 20.5907L4.69469 20.1367C4.08017 19.731 3.91091 18.9039 4.31664 18.2894C4.72237 17.6748 5.54945 17.5056 6.16397 17.9113L7.96429 19.0999L10.6231 17.5648L10.614 14.4299L7.96429 12.9001L6.16397 14.0887C5.54945 14.4944 4.72237 14.3252 4.31664 13.7106C3.91091 13.0961 4.08017 12.269 4.69469 11.8633L5.38232 11.4093L3.78665 10.488C3.14893 10.1198 2.93044 9.30437 3.29864 8.66665C3.66684 8.02893 4.4823 7.81044 5.12001 8.17864L6.71568 9.09993L6.76506 8.27743C6.80919 7.54237 7.44085 6.98227 8.1759 7.0264C8.91096 7.07053 9.47107 7.70218 9.42694 8.43724L9.29765 10.5907L11.9564 12.1258L14.6667 10.5504V7.49071L12.737 6.5259C12.0784 6.19658 11.8114 5.39569 12.1408 4.73705C12.4701 4.07841 13.271 3.81144 13.9296 4.14076L14.6667 4.50929V2.66667C14.6667 1.93029 15.2636 1.33333 16 1.33333Z" fill="#4875F8"/>
</svg>
