<?xml version="1.0" encoding="UTF-8"?>
<svg width="24px" height="24px" viewBox="0 0 24 24" version="1.1" xmlns="http://www.w3.org/2000/svg" xmlns:xlink="http://www.w3.org/1999/xlink">
    <title>Group</title>
    <g id="Page-1" stroke="none" stroke-width="1" fill="none" fill-rule="evenodd">
        <g id="Desktop-HD-Copy-3" transform="translate(-952.000000, -53.000000)">
            <g id="Group" transform="translate(952.000000, 53.000000)">
                <rect id="Rectangle" x="0" y="0" width="24" height="24"></rect>
                <path d="M12,5.49661914 L19.505216,18.500882 L4.49478396,18.500882 L12,5.49661914 Z M2.77047802,17.5013229 C2.00301237,18.8307364 2.95985266,20.5 4.49478396,20.5 L19.505216,20.5 C21.0401473,20.5 21.9969876,18.8307364 21.229522,17.5013229 L13.7243059,4.49706012 C12.9568403,3.16764663 11.0431597,3.16764663 10.2756941,4.49706012 L2.77047802,17.5013229 Z M11.0032914,10.5044098 L11.0032914,12.5035279 C11.0032914,13.0532853 11.4518102,13.5030869 12,13.5030869 C12.5481898,13.5030869 12.9967086,13.0532853 12.9967086,12.5035279 L12.9967086,10.5044098 C12.9967086,9.95465236 12.5481898,9.5048508 12,9.5048508 C11.4518102,9.5048508 11.0032914,9.95465236 11.0032914,10.5044098 M11.0032914,15.5022049 L12.9967086,15.5022049 L12.9967086,17.5013229 L11.0032914,17.5013229 L11.0032914,15.5022049 Z" id="Shape" fill="#D92D20" fill-rule="nonzero"></path>
            </g>
        </g>
    </g>
</svg>