<svg width="32" height="32" viewBox="0 0 32 32" fill="none" xmlns="http://www.w3.org/2000/svg">
<path fill-rule="evenodd" clip-rule="evenodd" d="M5.6293 26.3707L26.3707 5.62931C26.3706 5.62926 26.3706 5.62922 26.3706 5.62917C25.8499 5.10848 25.0056 5.10849 24.4849 5.6292L23.1821 6.93208L22.9215 6.15039C22.6886 5.4518 21.9335 5.07427 21.235 5.30714C20.5364 5.54001 20.1588 6.29511 20.3917 6.9937L21.0739 9.0403L18.9109 11.2034L15.8801 10.4011L15.0855 7.43556L16.6997 6.00421C17.2506 5.51565 17.3012 4.67294 16.8127 4.12198C16.3241 3.57102 15.4814 3.52044 14.9304 4.009L14.3139 4.55573L13.837 2.7759C13.6464 2.06461 12.9153 1.6425 12.204 1.83309C11.4927 2.02368 11.0706 2.75479 11.2612 3.46608L11.7381 5.24592L10.9308 5.08071C10.2093 4.93308 9.50482 5.39824 9.35719 6.11967C9.20956 6.8411 9.67471 7.54561 10.3961 7.69324L12.5097 8.12575L13.3016 11.0811L11.0915 13.3043L8.12599 12.5097L7.69351 10.3962C7.54589 9.67473 6.84139 9.20957 6.11996 9.35719C5.39852 9.50481 4.93336 10.2093 5.08098 10.9307L5.24616 11.738L3.46642 11.2611C2.75513 11.0705 2.02401 11.4926 1.83341 12.2039C1.64281 12.9152 2.06491 13.6463 2.7762 13.8369L4.55594 14.3138L4.00925 14.9303C3.52068 15.4812 3.57125 16.3239 4.1222 16.8125C4.67316 17.3011 5.51586 17.2505 6.00444 16.6996L7.43577 15.0855L10.3912 15.8774L11.2113 18.9032L9.04042 21.0741L6.9938 20.3919C6.29521 20.1591 5.54012 20.5366 5.30726 21.2352C5.07441 21.9338 5.45196 22.6889 6.15056 22.9218L6.93226 23.1823L5.62941 24.4852C5.10876 25.0059 5.10873 25.85 5.6293 26.3707Z" fill="#4875F8"/>
<path fill-rule="evenodd" clip-rule="evenodd" d="M22.5999 9.40014L26.3708 5.62919C26.8915 6.14989 26.8915 6.99411 26.3708 7.51481L24.4855 9.40014C23.9648 9.92084 23.1206 9.92084 22.5999 9.40014ZM11.3515 20.6485L20.7796 11.2204C21.4055 11.8464 21.9006 12.5907 22.2358 13.41C22.571 14.2293 22.7396 15.1072 22.732 15.9924C22.7243 16.8776 22.5404 17.7524 22.191 18.5657C21.8416 19.3791 21.3337 20.1147 20.697 20.7297C19.4396 21.9441 17.7556 22.6161 16.0076 22.6009C14.2596 22.5857 12.5876 21.8846 11.3515 20.6485ZM5.6292 26.3708L9.40015 22.5999C9.92085 23.1206 9.92085 23.9648 9.40015 24.4855L7.51481 26.3708C6.99412 26.8915 6.1499 26.8915 5.6292 26.3708ZM26.6667 14.6667C25.9303 14.6667 25.3333 15.2636 25.3333 16C25.3333 16.7364 25.9303 17.3333 26.6667 17.3333H29.3333C30.0697 17.3333 30.6667 16.7364 30.6667 16C30.6667 15.2636 30.0697 14.6667 29.3333 14.6667H26.6667ZM24.4855 22.5999C23.9648 22.0792 23.1206 22.0792 22.5999 22.5999C22.0792 23.1206 22.0792 23.9648 22.5999 24.4855L24.4852 26.3708C25.0059 26.8915 25.8501 26.8915 26.3708 26.3708C26.8915 25.8501 26.8915 25.0059 26.3708 24.4852L24.4855 22.5999ZM17.3333 26.6667C17.3333 25.9303 16.7364 25.3333 16 25.3333C15.2636 25.3333 14.6667 25.9303 14.6667 26.6667V29.3333C14.6667 30.0697 15.2636 30.6667 16 30.6667C16.7364 30.6667 17.3333 30.0697 17.3333 29.3333V26.6667Z" fill="#F0B646"/>
</svg>
