<svg width="32" height="32" viewBox="0 0 32 32" fill="none" xmlns="http://www.w3.org/2000/svg">
<path fill-rule="evenodd" clip-rule="evenodd" d="M16 1.33333C16.7364 1.33333 17.3333 1.93029 17.3333 2.66667V5.33333C17.3333 6.06971 16.7364 6.66667 16 6.66667C15.2636 6.66667 14.6667 6.06971 14.6667 5.33333V2.66667C14.6667 1.93029 15.2636 1.33333 16 1.33333ZM26.3708 5.62919C26.8915 6.14989 26.8915 6.99411 26.3708 7.51481L24.4855 9.40014C23.9648 9.92084 23.1206 9.92084 22.5999 9.40014C22.0792 8.87944 22.0792 8.03522 22.5999 7.51452L24.4852 5.62919C25.0059 5.10849 25.8501 5.10849 26.3708 5.62919ZM5.62919 5.62919C6.14989 5.10849 6.99411 5.10849 7.51481 5.62919L9.40014 7.51452C9.92084 8.03522 9.92084 8.87944 9.40014 9.40014C8.87944 9.92084 8.03522 9.92084 7.51452 9.40014L5.62919 7.51481C5.10849 6.99411 5.10849 6.14989 5.62919 5.62919ZM16.0076 9.26805C16.8928 9.26036 17.7707 9.42903 18.59 9.76424C19.4093 10.0994 20.1536 10.5945 20.7796 11.2204C21.4055 11.8464 21.9006 12.5907 22.2358 13.41C22.571 14.2293 22.7396 15.1072 22.732 15.9924C22.7243 16.8776 22.5404 17.7524 22.191 18.5657C21.8416 19.3791 21.3337 20.1147 20.6969 20.7297C19.4396 21.9441 17.7556 22.6161 16.0076 22.6009C14.2596 22.5857 12.5875 21.8846 11.3515 20.6485C10.1154 19.4125 9.41431 17.7404 9.39912 15.9924C9.38393 14.2444 10.0559 12.5604 11.2703 11.3031C11.8853 10.6663 12.6209 10.1584 13.4343 9.80904C14.2476 9.45965 15.1224 9.27574 16.0076 9.26805ZM1.33333 16C1.33333 15.2636 1.93029 14.6667 2.66667 14.6667H5.33333C6.06971 14.6667 6.66667 15.2636 6.66667 16C6.66667 16.7364 6.06971 17.3333 5.33333 17.3333H2.66667C1.93029 17.3333 1.33333 16.7364 1.33333 16ZM25.3333 16C25.3333 15.2636 25.9303 14.6667 26.6667 14.6667H29.3333C30.0697 14.6667 30.6667 15.2636 30.6667 16C30.6667 16.7364 30.0697 17.3333 29.3333 17.3333H26.6667C25.9303 17.3333 25.3333 16.7364 25.3333 16ZM9.40014 22.5999C9.92084 23.1206 9.92084 23.9648 9.40014 24.4855L7.51481 26.3708C6.99411 26.8915 6.14989 26.8915 5.62919 26.3708C5.10849 25.8501 5.10849 25.0059 5.62919 24.4852L7.51452 22.5999C8.03522 22.0792 8.87944 22.0792 9.40014 22.5999ZM22.5999 22.5999C23.1206 22.0792 23.9648 22.0792 24.4855 22.5999L26.3708 24.4852C26.8915 25.0059 26.8915 25.8501 26.3708 26.3708C25.8501 26.8915 25.0059 26.8915 24.4852 26.3708L22.5999 24.4855C22.0792 23.9648 22.0792 23.1206 22.5999 22.5999ZM16 25.3333C16.7364 25.3333 17.3333 25.9303 17.3333 26.6667V29.3333C17.3333 30.0697 16.7364 30.6667 16 30.6667C15.2636 30.6667 14.6667 30.0697 14.6667 29.3333V26.6667C14.6667 25.9303 15.2636 25.3333 16 25.3333Z" fill="#F0B646"/>
</svg>
