<?xml version="1.0" encoding="UTF-8"?>
<svg width="24px" height="24px" viewBox="0 0 24 24" version="1.1" xmlns="http://www.w3.org/2000/svg" xmlns:xlink="http://www.w3.org/1999/xlink">
    <title>Group</title>
    <g id="Page-1" stroke="none" stroke-width="1" fill="none" fill-rule="evenodd">
        <g id="Group">
            <rect id="Rectangle" x="0" y="0" width="24" height="24"></rect>
            <g id="Group-10" transform="translate(1.000000, 5.000000)" stroke="#000000" stroke-linecap="round" stroke-width="2">
                <path d="M7,14 C8.1045695,14 9,13.1045695 9,12 C9,10.8954305 8.1045695,10 7,10 C5.8954305,10 5,10.8954305 5,12 C5,13.1045695 5.8954305,14 7,14 M17,14 C18.1045695,14 19,13.1045695 19,12 C19,10.8954305 18.1045695,10 17,10 C15.8954305,10 15,10.8954305 15,12 C15,13.1045695 15.8954305,14 17,14" id="Shape" stroke-linejoin="round"></path>
                <path d="M9.05,12 L14,12 L14,0.6 C14,0.26862915 13.7313708,0 13.4,0 L0,0 M4.65,12 L2.6,12 C2.44087011,12 2.28825776,11.9367859 2.17573593,11.8242641 C2.0632141,11.7117422 2,11.5591299 2,11.4 L2,6.5" id="Shape"></path>
                <line x1="1" y1="4" x2="5" y2="4" id="Path" stroke-linejoin="round"></line>
                <path d="M14,4 L19.61,4 C19.8469345,4 20.0616466,4.13954214 20.158,4.356 L21.948,8.384 C21.9821011,8.46048367 21.9998142,8.54325874 22,8.627 L22,11.4 C22,11.5591299 21.9367859,11.7117422 21.8242641,11.8242641 C21.7117422,11.9367859 21.5591299,12 21.4,12 L19.5,12 M14,12 L15,12" id="Shape"></path>
            </g>
        </g>
    </g>
</svg>