<?xml version="1.0" encoding="UTF-8"?>
<svg width="16px" height="16px" viewBox="0 0 16 16" version="1.1" xmlns="http://www.w3.org/2000/svg" xmlns:xlink="http://www.w3.org/1999/xlink">
    <title>Group</title>
    <g id="Page-1" stroke="none" stroke-width="1" fill="none" fill-rule="evenodd">
        <g id="Desktop-HD" transform="translate(-960.000000, -426.000000)">
            <g id="Group-5" transform="translate(960.000000, 304.000000)">
                <g id="Group" transform="translate(0.000000, 122.000000)">
                    <rect id="Rectangle" x="0" y="0" width="16" height="16"></rect>
                    <path d="M7.99666667,1.33 C4.31666667,1.33 1.33,4.31666667 1.33,7.99666667 C1.33,11.6766667 4.31666667,14.6633333 7.99666667,14.6633333 C11.6766667,14.6633333 14.6633333,11.6766667 14.6633333,7.99666667 C14.6633333,4.31666667 11.6766667,1.33 7.99666667,1.33 M7.99666667,13.33 C5.05666667,13.33 2.66333333,10.9366667 2.66333333,7.99666667 C2.66333333,5.05666667 5.05666667,2.66333333 7.99666667,2.66333333 C10.9366667,2.66333333 13.33,5.05666667 13.33,7.99666667 C13.33,10.9366667 10.9366667,13.33 7.99666667,13.33 M7.33,10.6633333 L8.66333333,10.6633333 L8.66333333,11.9966667 L7.33,11.9966667 L7.33,10.6633333 Z M8.40333333,4.02333333 C7.03,3.82333333 5.81666667,4.67 5.45,5.88333333 C5.33,6.27 5.62333333,6.66333333 6.03,6.66333333 L6.16333333,6.66333333 C6.43666667,6.66333333 6.65666667,6.47 6.75,6.21666667 C6.96333333,5.62333333 7.59666667,5.21666667 8.28333333,5.36333333 C8.91666667,5.49666667 9.38333333,6.11666667 9.33,6.76333333 C9.26333333,7.65666667 8.25,7.85 7.69666667,8.68333333 C7.69666667,8.69 7.69,8.69 7.69,8.69666667 C7.68333333,8.71 7.67666667,8.71666667 7.67,8.73 C7.61,8.83 7.55,8.94333333 7.50333333,9.06333333 C7.49666667,9.08333333 7.48333333,9.09666667 7.47666667,9.11666667 C7.47,9.13 7.47,9.14333333 7.46333333,9.16333333 C7.38333333,9.39 7.33,9.66333333 7.33,9.99666667 L8.66333333,9.99666667 C8.66333333,9.71666667 8.73666667,9.48333333 8.85,9.28333333 C8.86333333,9.26333333 8.87,9.24333333 8.88333333,9.22333333 C8.93666667,9.13 9.00333333,9.04333333 9.07,8.96333333 C9.07666667,8.95666667 9.08333333,8.94333333 9.09,8.93666667 C9.15666667,8.85666667 9.23,8.78333333 9.31,8.71 C9.95,8.10333333 10.8166667,7.61 10.6366667,6.33666667 C10.4766667,5.17666667 9.56333333,4.19666667 8.40333333,4.02333333" id="Shape" fill="#000000" fill-rule="nonzero"></path>
                </g>
            </g>
        </g>
    </g>
</svg>