<?xml version="1.0" encoding="UTF-8"?>
<svg width="48px" height="48px" viewBox="0 0 48 48" version="1.1" xmlns="http://www.w3.org/2000/svg" xmlns:xlink="http://www.w3.org/1999/xlink">
    <title>Group</title>
    <g id="Page-1" stroke="none" stroke-width="1" fill="none" fill-rule="evenodd">
        <g id="Desktop-HD" transform="translate(-797.000000, -640.000000)">
            <g id="Group" transform="translate(797.000000, 640.000000)">
                <rect id="Rectangle" x="0" y="0" width="48" height="48"></rect>
                <path d="M2.58397323,2.58370832 C2.21010275,2.95664376 2,3.4629124 2,3.99086429 C2,4.51881618 2.21010275,5.02508482 2.58397323,5.39802026 L9.93246129,12.7431748 L14.3455479,22.044376 L11.649771,26.9344925 C11.2703654,27.5931613 11.0906469,28.3915476 11.1705218,29.2298533 C11.370209,31.3455772 13.2872058,32.8625113 15.4038899,32.8625113 L30.0409599,32.8625113 L32.7966429,35.6169443 C31.3898717,36.6250254 30.794367,38.4251138 31.3225765,40.072744 C31.850786,41.7203743 33.3820763,42.8392574 35.1130141,42.8423409 C36.4509182,42.8423409 37.6290725,42.1836721 38.3479464,41.1657295 L42.6012832,45.4171369 C43.3787867,46.1942877 44.6393689,46.1942877 45.4168724,45.4171369 C46.1943759,44.6399861 46.1943759,43.3799758 45.4168724,42.602825 L5.3995624,2.58370832 C5.02645771,2.21000744 4.51995931,2 3.99176782,2 C3.46357633,2 2.95707792,2.21000744 2.58397323,2.58370832 M15.1442966,28.8705795 L17.3408555,24.8786476 L22.0534728,24.8786476 L26.0472164,28.8705795 L15.1442966,28.8705795 Z M33.215986,24.7588897 C34.2942967,24.4794544 35.192889,23.7808664 35.7120757,22.8228027 L42.8608765,9.86898392 C43.5997191,8.55164641 42.6212519,6.91495436 41.1036294,6.91495436 L15.3839212,6.91495436 L33.215986,24.7588897 Z M15.1442966,34.8584772 C12.9477376,34.8584772 11.1705218,36.6548465 11.1705218,38.850409 C11.1705218,41.0459716 12.9477376,42.8423409 15.1442966,42.8423409 C17.3408555,42.8423409 19.1380401,41.0459716 19.1380401,38.850409 C19.1380401,36.6548465 17.3408555,34.8584772 15.1442966,34.8584772" id="Shape" fill="#A0A0AB" fill-rule="nonzero"></path>
            </g>
        </g>
    </g>
</svg>