<?xml version="1.0" encoding="UTF-8"?>
<svg width="16px" height="16px" viewBox="0 0 16 16" version="1.1" xmlns="http://www.w3.org/2000/svg" xmlns:xlink="http://www.w3.org/1999/xlink">
    <title>Group</title>
    <g id="Page-1" stroke="none" stroke-width="1" fill="none" fill-rule="evenodd">
        <g id="Desktop-HD-Copy-3" transform="translate(-896.000000, -177.000000)">
            <g id="Group" transform="translate(896.000000, 177.000000)">
                <rect id="Rectangle" x="0" y="0" width="16" height="16"></rect>
                <path d="M4,12.6666667 C4,13.4 4.6,14 5.33333333,14 L10.6666667,14 C11.4,14 12,13.4 12,12.6666667 L12,6 C12,5.26666667 11.4,4.66666667 10.6666667,4.66666667 L5.33333333,4.66666667 C4.6,4.66666667 4,5.26666667 4,6 L4,12.6666667 Z M12,2.66666667 L10.3333333,2.66666667 L9.86,2.19333333 C9.74,2.07333333 9.56666667,2 9.39333333,2 L6.60666667,2 C6.43333333,2 6.26,2.07333333 6.14,2.19333333 L5.66666667,2.66666667 L4,2.66666667 C3.63333333,2.66666667 3.33333333,2.96666667 3.33333333,3.33333333 C3.33333333,3.7 3.63333333,4 4,4 L12,4 C12.3666667,4 12.6666667,3.7 12.6666667,3.33333333 C12.6666667,2.96666667 12.3666667,2.66666667 12,2.66666667" id="Shape" fill="#000000" fill-rule="nonzero"></path>
            </g>
        </g>
    </g>
</svg>