<?xml version="1.0" encoding="UTF-8"?>
<svg width="372px" height="16px" viewBox="0 0 372 16" version="1.1" xmlns="http://www.w3.org/2000/svg" xmlns:xlink="http://www.w3.org/1999/xlink">
    <title>Group 3</title>
    <defs>
        <linearGradient x1="50%" y1="100%" x2="50%" y2="0%" id="linearGradient-1">
            <stop stop-color="#424546" offset="0%"></stop>
            <stop stop-color="#000000" offset="100%"></stop>
        </linearGradient>
        <radialGradient cx="8.76378378%" cy="-3.50972973%" fx="8.76378378%" fy="-3.50972973%" r="165.800614%" gradientTransform="translate(0.087638,-0.035097),scale(0.980966,1.000000),rotate(39.458739),translate(-0.087638,0.035097)" id="radialGradient-2">
            <stop stop-color="#EE302D" offset="0%"></stop>
            <stop stop-color="#EF4148" offset="40%"></stop>
            <stop stop-color="#EF4955" offset="50%"></stop>
            <stop stop-color="#EC3F97" offset="70%"></stop>
            <stop stop-color="#C54E9D" offset="80%"></stop>
            <stop stop-color="#9E58A3" offset="100%"></stop>
        </radialGradient>
    </defs>
    <g id="Page-1" stroke="none" stroke-width="1" fill="none" fill-rule="evenodd">
        <g id="Desktop-HD-Copy-3" transform="translate(-960.000000, -519.000000)">
            <g id="Group-3" transform="translate(960.000000, 519.000000)">
                <g id="blik-logo">
                    <rect id="Artboard1" x="0" y="0" width="30.9999752" height="15.9999792"></rect>
                    <g id="Group">
                        <path d="M28.4250752,16 L2.57482353,16 C1.15277451,16 0,14.8690683 0,13.474087 L0,2.52591304 C0,1.13093168 1.15277451,0 2.57482353,0 L28.4250752,0 C29.8471242,0 31,1.13093168 31,2.52591304 L31,13.474087 C31,14.8690683 29.8471242,16 28.4250752,16 Z" id="Path" fill="url(#linearGradient-1)"></path>
                        <rect id="Rectangle" fill="#FFFFFF" fill-rule="nonzero" x="12.7647059" y="2.39344099" width="2.10212418" height="11.5526957"></rect>
                        <rect id="Rectangle" fill="#FFFFFF" fill-rule="nonzero" x="16.6650327" y="6.29406211" width="2.10212418" height="7.65207453"></rect>
                        <polygon id="Path" fill="#FFFFFF" fill-rule="nonzero" points="28.1887255 13.9461366 25.029866 9.89654658 27.9354575 6.29406211 25.4534314 6.29406211 22.6674837 9.78901863 22.6674837 2.39344099 20.5653595 2.39344099 20.5653595 13.9461366 22.6674837 13.9461366 22.6674837 10.0173913 25.4534314 13.9461366"></polygon>
                        <path d="M7.40808824,11.9709814 C6.36594118,11.9709814 5.52124183,11.1422609 5.52124183,10.1200497 C5.52124183,9.09793789 6.36594118,8.26921739 7.40808824,8.26921739 C8.45013399,8.26921739 9.29493464,9.09793789 9.29493464,10.1200497 C9.29493464,11.1422609 8.45013399,11.9709814 7.40808824,11.9709814 Z M7.40808824,6.20710559 C6.72537908,6.20710559 6.0829902,6.37565217 5.52124183,6.672 L5.52124183,2.39344099 L3.41911765,2.39344099 L3.41911765,10.1200497 C3.41911765,12.2811429 5.20496078,14.0330932 7.40808824,14.0330932 C9.61111438,14.0330932 11.3970588,12.2811429 11.3970588,10.1200497 C11.3970588,7.9590559 9.61111438,6.20710559 7.40808824,6.20710559 Z" id="Shape" fill="#FFFFFF" fill-rule="nonzero"></path>
                        <path d="M11.3337418,3.66052174 C11.3337418,4.67587578 10.4946144,5.49903106 9.45955882,5.49903106 C8.42440196,5.49903106 7.58537582,4.67587578 7.58537582,3.66052174 C7.58537582,2.64506832 8.42440196,1.82201242 9.45955882,1.82201242 C10.4946144,1.82201242 11.3337418,2.64506832 11.3337418,3.66052174 Z" id="Path" fill="url(#radialGradient-2)"></path>
                    </g>
                </g>
                <g id="Group" transform="translate(207.000000, 0.000000)" fill-rule="nonzero">
                    <rect id="Rectangle" fill="#FF5F00" x="9.48890531" y="1.71216838" width="7.02837139" height="12.5719591"></rect>
                    <path d="M9.93515111,7.99814793 C9.93515111,5.55483432 11.0730779,3.22258042 12.9919349,1.71216838 C9.5112176,-1.01990048 4.44632774,-0.420178046 1.70191605,3.06709683 C-1.02018334,6.53215977 -0.417751508,11.5520586 3.08527804,14.2841275 C6.00818805,16.5719575 10.0913371,16.5719575 13.0142471,14.2841275 C11.0730779,12.7737154 9.93515111,10.4414615 9.93515111,7.99814793 Z" id="Path" fill="#EB001B"></path>
                    <path d="M26,7.99814793 C26,12.4183244 22.4077213,15.994447 17.9675756,15.994447 C16.1602801,15.994447 14.4199214,15.3947246 13.0142471,14.2841275 C16.4949644,11.5520586 17.0973962,6.53215977 14.3529846,3.04488489 C13.9513633,2.55622217 13.5051175,2.08977139 13.0142471,1.71216838 C16.4949644,-1.01990048 21.5598543,-0.420178046 24.2819537,3.06709683 C25.3975682,4.46644917 26,6.19898064 26,7.99814793 Z" id="Path" fill="#F79E1B"></path>
                </g>
                <g id="Apple-Pay-Card" transform="translate(110.000000, 0.000000)" fill-rule="nonzero">
                    <path d="M22.764342,0.007023705 L2.23565804,0.007023705 C2.15129359,0.007023705 2.06692913,0.007023705 1.98256468,0.007023705 C1.91226097,0.007023705 1.84195726,0.007023705 1.76462317,0.007023705 C1.60995501,0.01404741 1.44825647,0.021071115 1.2935883,0.049165935 C1.13892013,0.077260755 0.984251969,0.12642669 0.843644544,0.19666374 C0.562429696,0.33713784 0.330427447,0.568920105 0.189820022,0.849868306 C0.11951631,0.990342406 0.070303712,1.13784021 0.0421822272,1.29938543 C0.0140607424,1.45390694 0.0070303712,1.61545215 0,1.76997366 C0,1.84021071 0,1.91044776 0,1.98770852 C0,2.07199298 0,2.15627744 0,2.2405619 L0,13.7594381 C0,13.8437226 0,13.928007 0,14.0193152 C0,14.0895522 0,14.1597893 0,14.23705 C0.0070303712,14.3915716 0.0140607424,14.5531168 0.0421822272,14.7076383 C0.070303712,14.8621598 0.11951631,15.0166813 0.189820022,15.1571554 C0.260123735,15.2976295 0.35151856,15.4240562 0.464004499,15.5364355 C0.576490439,15.6488147 0.70303712,15.7401229 0.843644544,15.81036 C0.984251969,15.880597 1.13188976,15.9297629 1.2935883,15.9578578 C1.44825647,15.9859526 1.60995501,15.9929763 1.76462317,16 C1.83492688,16 1.9052306,16 1.98256468,16 C2.06692913,16 2.15129359,16 2.23565804,16 L22.764342,16 C22.8487064,16 22.9330709,16 23.0174353,16 C23.087739,16 23.1580427,16 23.2353768,16 C23.390045,15.9929763 23.5517435,15.9859526 23.7064117,15.9578578 C23.8610799,15.9297629 24.015748,15.880597 24.1563555,15.81036 C24.4375703,15.6628622 24.6695726,15.4381036 24.81018,15.1571554 C24.8804837,15.0166813 24.9296963,14.8691835 24.9578178,14.7076383 C24.9859393,14.5531168 24.9929696,14.3915716 25,14.23705 C25,14.166813 25,14.0965759 25,14.0193152 C25,13.9350307 25,13.8507463 25,13.7594381 L25,2.2405619 C25,2.15627744 25,2.07199298 25,1.98068481 C25,1.91044776 25,1.84021071 25,1.76294996 C24.9929696,1.60842845 24.9859393,1.44688323 24.9578178,1.29236172 C24.9296963,1.13784021 24.8804837,0.983318701 24.81018,0.842844601 C24.6695726,0.5618964 24.4375703,0.330114135 24.1563555,0.189640035 C24.015748,0.119402985 23.8681102,0.07023705 23.7064117,0.04214223 C23.5517435,0.01404741 23.390045,0.007023705 23.2353768,-9.98128514e-16 C23.1650731,-9.98128514e-16 23.0947694,-9.98128514e-16 23.0174353,-9.98128514e-16 C22.9330709,0.007023705 22.8487064,0.007023705 22.764342,0.007023705 Z" id="Path" fill="#010202"></path>
                    <path d="M22.764342,0.540825285 L23.0174353,0.540825285 C23.087739,0.540825285 23.1510124,0.540825285 23.2213161,0.540825285 C23.3408324,0.540825285 23.4814398,0.54784899 23.6150169,0.57594381 C23.7275028,0.597014925 23.825928,0.625109745 23.9173228,0.67427568 C24.1001125,0.765583845 24.2477503,0.913081651 24.3391451,1.09569798 C24.3883577,1.18700615 24.4164792,1.27831431 24.4375703,1.3977173 C24.4586614,1.52414399 24.4656918,1.66461809 24.4727222,1.78402107 C24.4727222,1.85425812 24.4727222,1.91747147 24.4727222,1.98770852 C24.4727222,2.07199298 24.4727222,2.15627744 24.4727222,2.2405619 L24.4727222,13.7594381 C24.4727222,13.8437226 24.4727222,13.928007 24.4727222,14.0122915 C24.4727222,14.0825285 24.4727222,14.1457419 24.4727222,14.2159789 C24.4727222,14.3353819 24.4656918,14.475856 24.4375703,14.6093064 C24.4235096,14.714662 24.3883577,14.8129939 24.3391451,14.904302 C24.2477503,15.0869183 24.1001125,15.2344162 23.9173228,15.3257243 C23.825928,15.3748903 23.7345332,15.4029851 23.6220472,15.4240562 C23.4884702,15.4451273 23.3408324,15.452151 23.2353768,15.4591747 C23.1650731,15.4591747 23.0947694,15.4591747 23.0244657,15.4591747 C22.9401012,15.4591747 22.8557368,15.4591747 22.7713723,15.4591747 L2.24268841,15.4591747 C2.15832396,15.4591747 2.07395951,15.4591747 1.98959505,15.4591747 C1.91929134,15.4591747 1.856018,15.4591747 1.78571429,15.4591747 C1.67322835,15.4591747 1.52559055,15.452151 1.3920135,15.4240562 C1.28655793,15.4100088 1.18813273,15.3748903 1.08970754,15.3257243 C0.998312711,15.2765584 0.913948256,15.2203687 0.843644544,15.1501317 C0.773340832,15.0798946 0.710067492,14.9956102 0.667885264,14.904302 C0.618672666,14.8129939 0.590551181,14.7076383 0.569460067,14.6022827 C0.548368954,14.4688323 0.541338583,14.3353819 0.534308211,14.2159789 C0.534308211,14.1457419 0.534308211,14.0825285 0.534308211,14.0122915 L0.534308211,13.808604 L0.534308211,2.19139596 L0.534308211,1.99473222 C0.534308211,1.92449517 0.534308211,1.86128183 0.534308211,1.79104478 C0.534308211,1.67164179 0.541338583,1.53116769 0.569460067,1.3977173 C0.58352081,1.29236172 0.618672666,1.19402985 0.667885264,1.09569798 C0.717097863,1.00438982 0.773340832,0.920105356 0.843644544,0.849868306 C0.913948256,0.779631255 0.998312711,0.71641791 1.08970754,0.67427568 C1.18110236,0.625109745 1.28655793,0.597014925 1.3920135,0.57594381 C1.52559055,0.554872695 1.66619798,0.54784899 1.78571429,0.540825285 C1.856018,0.540825285 1.91929134,0.540825285 1.98959505,0.540825285 L2.24268841,0.540825285 L22.764342,0.540825285" id="Path" fill="#FFFFFF"></path>
                    <g id="Group" transform="translate(3.173284, 4.424934)" fill="#010202">
                        <g transform="translate(-0.000000, 0.000000)" id="Path">
                            <path d="M3.40011291,0.983318701 C3.61102405,0.71641791 3.75866184,0.36523266 3.71647962,-1.99625703e-15 C3.40714328,0.01404741 3.02750324,0.203687445 2.80956173,0.470588235 C2.61271134,0.695346795 2.43695206,1.06760316 2.48616466,1.41878841 C2.83065284,1.44688323 3.1821714,1.24319579 3.40011291,0.983318701"></path>
                            <path d="M3.70944925,1.48200176 C3.20326252,1.45390694 2.77440988,1.76997366 2.53537725,1.76997366 C2.29634463,1.76997366 1.92373496,1.49604917 1.5230038,1.50307287 C1.00275633,1.51009658 0.517660719,1.80509219 0.257536984,2.27568042 C-0.283801598,3.20983319 0.11692956,4.60052678 0.6442074,5.35908692 C0.904331135,5.73836699 1.21366747,6.15276558 1.61439863,6.13871817 C2.00106904,6.12467076 2.14870684,5.8928885 2.61974171,5.8928885 C3.09077658,5.8928885 3.22435363,6.13871817 3.63211516,6.13169447 C4.05393743,6.12467076 4.32109154,5.7524144 4.5741849,5.38015803 C4.86946049,4.95171203 4.9889768,4.53731343 4.99600718,4.50921861 C4.9889768,4.50219491 4.18048412,4.19315189 4.17345374,3.26602283 C4.16642337,2.48639157 4.80618715,2.12115891 4.84133901,2.09306409 C4.47575971,1.55926251 3.90629964,1.49604917 3.70944925,1.48200176"></path>
                        </g>
                        <g transform="translate(6.634084, 0.428446)">
                            <path d="M2.1231721,0 C3.21991001,0 3.98622047,0.75856014 3.98622047,1.86128183 C3.98622047,2.97102722 3.20584927,3.72958736 2.09505062,3.72958736 L0.8787964,3.72958736 L0.8787964,5.66110623 L3.99630335e-15,5.66110623 L3.99630335e-15,0 C3.99630335e-15,0 2.1231721,0 2.1231721,0 Z M0.8787964,2.99209833 L1.89116985,2.99209833 C2.65748031,2.99209833 3.09336333,2.57769974 3.09336333,1.86830553 C3.09336333,1.15188762 2.65748031,0.74451273 1.89820022,0.74451273 L0.885826772,0.74451273 C0.8787964,0.74451273 0.8787964,2.99209833 0.8787964,2.99209833 Z" id="Shape"></path>
                            <path d="M4.20416198,4.4881475 C4.20416198,3.76470588 4.7595613,3.34328358 5.77896513,3.28709394 L6.87570304,3.2238806 L6.87570304,2.90781387 C6.87570304,2.45127305 6.57339708,2.19841967 6.03205849,2.19841967 C5.58914511,2.19841967 5.26574803,2.42317823 5.20247469,2.77436348 L4.40804274,2.77436348 C4.42913386,2.04389816 5.12514061,1.51009658 6.06017998,1.51009658 C7.06552306,1.51009658 7.71934758,2.03687445 7.71934758,2.85162423 L7.71934758,5.66812994 L6.90382452,5.66812994 L6.90382452,4.98683055 L6.88273341,4.98683055 C6.65073116,5.42932397 6.13751406,5.71027217 5.58914511,5.71027217 C4.77362205,5.70324846 4.20416198,5.21861282 4.20416198,4.4881475 Z M6.87570304,4.12291484 L6.87570304,3.80684811 L5.89848144,3.87006146 C5.35011249,3.90517998 5.06186727,4.10886743 5.06186727,4.46707638 C5.06186727,4.81123793 5.35714286,5.03599649 5.82817773,5.03599649 C6.42575928,5.03599649 6.87570304,4.65671642 6.87570304,4.12291484 Z" id="Shape"></path>
                            <path d="M8.46456693,7.17822651 L8.46456693,6.49692713 C8.5208099,6.50395083 8.65438695,6.51097454 8.72469066,6.51097454 C9.11136108,6.51097454 9.33633296,6.34942932 9.46991001,5.92098332 L9.54724409,5.66812994 L8.0568054,1.55223881 L8.97778403,1.55223881 L10.0112486,4.89552239 L10.0323397,4.89552239 L11.0658043,1.55223881 L11.9656918,1.55223881 L10.4190101,5.87884109 C10.0674916,6.86918349 9.65973003,7.19929763 8.80202475,7.19929763 C8.73875141,7.19929763 8.52784027,7.19227392 8.46456693,7.17822651 Z" id="Path"></path>
                        </g>
                    </g>
                </g>
                <g id="VisaLogo" transform="translate(249.000000, 0.000000)" fill-rule="nonzero">
                    <polygon id="polygon9" fill="#00579F" points="21.2332755 15.769176 17.2639338 15.769176 19.7466445 0.280755543 23.7157691 0.280755543"></polygon>
                    <path d="M35.6224916,0.65940323 C34.839563,0.346016972 33.5977736,0 32.0623045,0 C28.1424521,0 25.3821242,2.10895155 25.3651936,5.12411716 C25.3326349,7.3486997 27.3415077,8.58428689 28.8439839,9.3260334 C30.3796701,10.0839858 30.9016948,10.5787024 30.9016948,11.2543115 C30.8860666,12.2919244 29.6607736,12.7702163 28.5179627,12.7702163 C26.9332214,12.7702163 26.0840901,12.5236244 24.7936796,11.9463455 L24.2710037,11.6988776 L23.715552,15.1756912 C24.6465142,15.6036135 26.3617074,15.9833561 28.1424521,16 C32.3073631,16 35.018853,13.9236792 35.0509776,10.7105393 C35.0668229,8.94738571 34.0060599,7.59638653 31.7191357,6.49241719 C30.330832,5.78373939 29.4806154,5.30588557 29.4806154,4.58078292 C29.4968947,3.92159869 30.1997289,3.24642759 31.7668884,3.24642759 C33.0572989,3.21335888 34.0054087,3.52630714 34.723654,3.8394744 L35.0826681,4.00394197 L35.6224916,0.65940323 L35.6224916,0.65940323 L35.6224916,0.65940323 Z" id="path11" fill="#00579F"></path>
                    <path d="M40.898089,10.282179 C41.2249785,9.39238982 42.4828303,5.94864495 42.4828303,5.94864495 C42.4663338,5.98171366 42.8090686,5.04243088 43.0050721,4.46580892 L43.2824723,5.80038325 C43.2824723,5.80038325 44.0341446,9.50780181 44.1973723,10.282179 C43.5770202,10.282179 41.6821029,10.282179 40.898089,10.282179 L40.898089,10.282179 Z M45.7977417,0.280755543 L42.7274548,0.280755543 C41.7806473,0.280755543 41.0613167,0.560635094 40.6528133,1.5658363 L34.7568639,15.768957 L38.9217749,15.768957 C38.9217749,15.768957 39.6074615,13.8573227 39.7548439,13.4456064 C40.2117513,13.4456064 44.2633579,13.4456064 44.8511513,13.4456064 C44.9651068,13.9893786 45.3247721,15.768957 45.3247721,15.768957 L49,15.768957 L45.7977417,0.280755543 L45.7977417,0.280755543 L45.7977417,0.280755543 Z" id="path13" fill="#00579F"></path>
                    <path d="M13.9485882,0.280755543 L10.0612946,10.8423761 L9.63651183,8.70035587 C8.91783243,6.2287435 6.66390102,3.543389 4.14863165,2.20815768 L7.70925288,15.7527512 L11.9067226,15.7527512 L18.1458409,0.280755543 L13.9485882,0.280755543 L13.9485882,0.280755543 L13.9485882,0.280755543 Z" id="path15" fill="#00579F"></path>
                    <path d="M6.45161819,0.280755543 L0.065334491,0.280755543 L0,0.593703805 C4.98170067,1.87900356 8.28098394,4.97716945 9.63651183,8.70101287 L8.24820816,1.58269915 C8.01964597,0.593484807 7.31724593,0.313386258 6.45161819,0.280755543 L6.45161819,0.280755543 Z" id="path17" fill="#FAA61A"></path>
                </g>
                <g id="Przelewy24_logo" transform="translate(47.000000, 0.000000)">
                    <polygon id="Path" fill="#D13239" points="9.84551644 9.22164315 13.7251808 9.21663566 13.5837864 10.107968 10.3391566 13.2351425 13.0628596 13.2301351 12.9041009 14.1915722 8.89296459 14.194076 9.06164564 13.2000901 12.1723228 10.1930953 9.6892384 10.1930953"></polygon>
                    <path d="M5.60120336,7.6968639 C5.51686283,7.60672917 5.39531324,7.53662438 5.26136064,7.48154204 C5.11996622,7.4264597 4.96368818,7.38639982 4.80989075,7.35885865 C4.61640365,7.32380626 4.42787776,7.3087838 4.29392516,7.30377631 C4.16989497,7.29876883 4.09051565,7.29876883 4.09051565,7.29876883 L2.39378266,7.29876883 L1.13115533,7.29876883 L-1.057545e-15,14.194076 L1.05673721,14.194076 L1.47347865,11.6402585 L3.52245738,11.6502735 C3.52245738,11.6502735 4.3212118,11.6828221 4.88678947,11.3798693 C5.45236713,11.0769164 5.60368396,10.3883872 5.60368396,10.3883872 C5.60368396,10.3883872 5.66569906,10.1330055 5.71779173,9.82254137 C5.77484562,9.47952864 5.83189951,9.06891485 5.86166675,8.85108924 C5.87406977,8.75594702 5.88151158,8.6958572 5.88151158,8.6958572 C5.88151158,8.6958572 5.89639521,8.62575241 5.89639521,8.51558773 C5.89887581,8.36285944 5.87655038,8.13251512 5.7574814,7.91218577 C5.71531113,7.83456975 5.66569906,7.76446495 5.60120336,7.6968639 Z M4.78756531,8.91368281 C4.78756531,8.92620152 4.69330237,9.47952864 4.56927218,10.1355092 C4.52214071,10.3858835 4.33113422,10.5210856 4.11284108,10.5686567 C3.75067293,10.6462727 3.36121813,10.6312502 3.36121813,10.6312502 L1.64960152,10.6262428 L2.0266533,8.33531827 L3.57703066,8.34032575 C3.57703066,8.34032575 3.68121602,8.33782201 3.82757165,8.34032575 C3.9937721,8.3428295 4.21454584,8.35034072 4.39562992,8.37537815 C4.55190795,8.39540809 4.67593814,8.42795674 4.7156278,8.4780316 C4.76772048,8.5431289 4.78756531,8.62825615 4.79500713,8.70336843 C4.80492954,8.8135331 4.78756531,8.90617158 4.78756531,8.91368281 Z" id="Shape" fill="#D13239"></path>
                    <polygon id="Path" fill="#D13239" points="18.9865414 7.29876883 20.003589 7.29876883 18.8649918 14.194076 17.8454637 14.1915722"></polygon>
                    <polygon id="Path" fill="#D13239" points="24.4141025 9.22164315 25.3889798 9.21913941 25.7337837 12.7193716 27.234549 9.21413192 28.4376418 9.21663566 28.7923682 12.7318903 30.2906529 9.21913941 31.3027392 9.21913941 29.1545363 14.1890685 27.9539241 14.1890685 27.6066396 10.7088663 26.0909907 14.1890685 24.9102233 14.194076"></polygon>
                    <g id="Group" transform="translate(13.324896, 9.153333)" fill="#D13239" fill-rule="nonzero">
                        <path d="M3.78382815,0.108370205 C3.49855872,0.0157317283 3.00491856,-0.00429821256 2.58569652,0.00070927265 C2.18135811,0.00571675786 1.99531282,0.0257466987 1.84399599,0.0582953526 C1.84399599,0.0582953526 1.12462089,0.163452542 0.715321266,0.674216033 C0.30602164,1.18497952 0.184472055,2.30164873 0.184472055,2.30164873 C0.184472055,2.30164873 -0.0586271167,3.53599383 0.0133103932,3.94911136 C0.0852479031,4.35972515 0.211758696,4.74279777 0.673151001,4.92056349 C1.13454331,5.10083296 1.5264787,5.09081799 1.5264787,5.09081799 C1.5264787,5.09081799 2.35003916,5.1559153 2.97019011,5.00819448 C3.59034106,4.86047367 3.91778076,4.41981497 3.91778076,4.41981497 C3.91778076,4.41981497 4.06413638,4.22953053 4.16832174,4.0041937 C4.2725071,3.77885686 4.30475495,3.62112108 4.30971616,3.60109114 L4.37421186,3.33319068 L3.31995524,3.33569442 C3.31995524,3.33569442 3.26290136,4.03924609 2.69236249,4.1043434 C2.12430422,4.16944071 1.81918995,4.14440328 1.70756278,4.1393958 C1.59841621,4.13438831 0.988187682,4.16192948 1.03779976,3.6461585 C1.03779976,3.63864728 1.03779976,3.62863231 1.04028036,3.61360985 C1.067567,3.02773408 1.1320627,2.87500578 1.1320627,2.87500578 L4.44366876,2.86499081 L4.58506318,2.03875575 C4.74878303,1.10235602 4.63219465,0.388789376 3.78382815,0.108370205 Z M3.56305442,1.92107985 L1.29330195,1.91857611 L1.38260369,1.55553343 C1.38260369,1.55553343 1.46198301,1.27010677 1.61826105,1.14992713 C1.77701969,1.02974748 1.97794859,1.0072138 2.16647448,0.989687601 C2.35500037,0.972161403 2.85856294,0.934605264 3.26786257,1.01973251 C3.40429577,1.04727368 3.53328717,1.1248897 3.56801562,1.24006186 C3.64739494,1.51046606 3.56305442,1.92107985 3.56305442,1.92107985 Z" id="Shape"></path>
                        <path d="M1.08765096,3.62375232 C1.08765096,3.6448116 1.07765096,3.66587088 1.07765096,3.68693016 C1.06765096,3.79924633 1.08765096,3.61673256 1.08765096,3.62375232 Z" id="Path"></path>
                    </g>
                    <g id="Group" transform="translate(19.573537, 9.155837)" fill="#D13239" fill-rule="nonzero">
                        <path d="M1.08411764,3.62375232 C1.08411764,3.6448116 1.07411764,3.66587088 1.07411764,3.68693016 C1.07411764,3.79924633 1.08411764,3.61673256 1.08411764,3.62375232 Z" id="Path"></path>
                        <path d="M3.78382815,0.108370205 C3.49855872,0.0157317283 3.00491856,-0.00429821256 2.58569652,0.00070927265 C2.18135811,0.00571675786 1.99531282,0.0257466987 1.84399599,0.0582953526 C1.84399599,0.0582953526 1.12462089,0.163452542 0.715321266,0.674216033 C0.30602164,1.18497952 0.184472055,2.30164873 0.184472055,2.30164873 C0.184472055,2.30164873 -0.0586271167,3.53599383 0.0133103932,3.94911136 C0.0852479031,4.35972515 0.211758696,4.74279777 0.673151001,4.92056349 C1.13454331,5.10083296 1.5264787,5.09081799 1.5264787,5.09081799 C1.5264787,5.09081799 2.35003916,5.1559153 2.97019011,5.00819448 C3.59034106,4.86047367 3.91778076,4.41981497 3.91778076,4.41981497 C3.91778076,4.41981497 4.06413638,4.22953053 4.16832174,4.0041937 C4.2725071,3.77885686 4.30475495,3.62112108 4.30971616,3.60109114 L4.37421186,3.33319068 L3.31995524,3.33569442 C3.31995524,3.33569442 3.26290136,4.03924609 2.69236249,4.1043434 C2.12430422,4.16944071 1.81918995,4.14440328 1.70756278,4.14189954 C1.59841621,4.13689206 0.988187682,4.16192948 1.03779976,3.64866225 C1.03779976,3.64115102 1.03779976,3.63113605 1.04028036,3.61611359 C1.067567,3.03023782 1.1320627,2.87750953 1.1320627,2.87750953 L4.44366876,2.86749455 L4.58506318,2.0412595 C4.74878303,1.10235602 4.63219465,0.386285634 3.78382815,0.108370205 Z M3.553132,1.91857611 L1.28337953,1.91607237 L1.37268127,1.55302969 C1.37268127,1.55302969 1.45206059,1.26760303 1.60833863,1.14742339 C1.76461667,1.02724374 1.96802618,1.00471006 2.15655207,0.987183859 C2.34507796,0.969657661 2.84864052,0.932101522 3.25794015,1.01722877 C3.39437336,1.04476994 3.52336476,1.12238596 3.55809321,1.23755812 C3.63747253,1.50545858 3.553132,1.91857611 3.553132,1.91857611 Z" id="Shape"></path>
                    </g>
                    <path d="M32.4735842,9.22164315 L33.125983,12.8570774 L34.9690716,9.21913941 L36.005964,9.22915438 L33.3492373,14.4244203 C33.3492373,14.4244203 32.8680002,15.3658275 32.5703278,15.603683 C32.2726553,15.8415386 32.0890906,15.9491995 31.8459914,15.974237 C31.6028923,15.9992744 31.5036681,16.0168006 31.2704914,15.974237 L31.022431,15.9291696 L31.1762284,15.0002811 C31.1762284,15.0002811 31.5880087,15.0778971 31.8311078,14.9802511 C32.0766876,14.8826052 32.2726553,14.4619764 32.2726553,14.4619764 L32.3966855,14.251662 L31.4366918,9.21913941 L32.4735842,9.22164315 L32.4735842,9.22164315 Z" id="Path" fill="#D13239"></path>
                    <path d="M36.3830158,9.71488044 L37.452156,9.71738419 L37.5166517,9.29925917 C37.5166517,9.29925917 37.6307595,8.5431289 37.8862617,8.39791183 C37.9681216,8.35034072 38.0995936,8.3077771 38.2509104,8.28023593 C38.5312187,8.23016108 38.885945,8.22515359 39.1761756,8.23516856 C39.6202037,8.25019102 39.7888848,8.2551985 40.2403547,8.3077771 C40.6918246,8.36035569 40.5777168,8.80101439 40.5777168,8.80101439 L40.4884151,9.4594987 C40.4884151,9.4594987 40.4487254,9.75494032 40.34454,9.93771353 C40.2527577,10.1004568 39.9997361,10.2106215 39.8533805,10.2581926 C39.5011347,10.3733647 38.2955613,10.6838288 38.2955613,10.6838288 L37.3479707,10.9592405 C37.3479707,10.9592405 36.7650288,11.129495 36.4400697,11.4925377 C36.11263,11.8580841 35.9836386,12.2712016 35.9389877,12.4865235 C35.8943368,12.7018454 35.6437959,14.1915722 35.6437959,14.1915722 L40.7588009,14.194076 L40.9299625,13.162534 L36.8840977,13.1675415 L36.9560353,12.7469127 C36.9560353,12.7469127 37.0031667,12.3137653 37.176809,12.1710519 C37.2313823,12.1259846 37.2586689,12.0658947 37.5811474,11.9507226 C37.7746345,11.8806178 38.4344751,11.7028521 38.4344751,11.7028521 L39.9600464,11.2822233 C39.9600464,11.2822233 40.7935293,11.0669014 41.120969,10.6062128 C41.4484087,10.1480279 41.5749195,9.26921426 41.5749195,9.26921426 C41.5749195,9.26921426 41.6642212,8.41543803 41.5947643,8.14753757 C41.527788,7.87963711 41.2772471,7.55915806 40.9721328,7.42145222 C40.6670185,7.28374637 40.3495012,7.20362661 39.4291972,7.21614532 C38.5088932,7.22866404 38.0524621,7.27122766 37.5861086,7.44648964 C37.1197551,7.61924788 36.8493693,7.93471945 36.6782076,8.38038563 C36.4921623,8.80351813 36.3830158,9.71488044 36.3830158,9.71488044 L36.3830158,9.71488044 Z" id="Path" fill="#B3B2B1"></path>
                    <path d="M46.0127197,11.6327473 L46.7296142,7.29626509 L45.459545,7.29626509 L41.5054626,11.5826724 L41.3268591,12.6692967 L44.7848208,12.6692967 L44.5317992,14.1915722 L45.5934977,14.194076 L45.8440386,12.6692967 L46.8238771,12.6718005 L47,11.6327473 L46.0127197,11.6327473 Z M44.9559825,11.635251 L42.7209585,11.6327473 L45.4421808,8.70587217 L44.9559825,11.635251 Z" id="Shape" fill="#B3B2B1"></path>
                    <path d="M7.84366918,7.8671184 L11.100702,7.8671184 C11.100702,7.8671184 11.8299995,7.27122766 12.3484457,6.88815504 C12.8668919,6.50508242 13.8095213,5.90168046 13.8095213,5.90168046 L11.9689133,5.03288177 C11.9689133,5.03288177 10.4135747,6.0043339 9.7537341,6.4625188 C9.11373832,6.8856513 7.84366918,7.8671184 7.84366918,7.8671184 L7.84366918,7.8671184 Z" id="Path" fill="#B3B2B1"></path>
                    <path d="M14.8439331,5.28826352 L13.3332454,4.26172905 C13.3332454,4.26172905 14.7000581,3.47805761 16.5183406,2.74696477 C18.3341426,2.01587193 19.3040587,1.71041534 19.3040587,1.71041534 L19.6116536,3.16508979 C19.6116536,3.16508979 17.8628279,3.75597304 16.860664,4.23418788 C15.8237716,4.67985406 14.8439331,5.28826352 14.8439331,5.28826352 L14.8439331,5.28826352 Z" id="Path" fill="#B3B2B1"></path>
                    <path d="M20.7279253,2.84711448 L20.4649813,1.35738763 C20.4649813,1.35738763 22.3303953,0.856639108 24.0370507,0.536160054 C25.7461867,0.215681001 28.010978,0.0629527022 28.010978,0.0629527022 L27.2618356,2.36389216 C27.2618356,2.36389216 25.2699108,2.08848047 23.3995355,2.34636596 C21.9434211,2.52162794 20.7279253,2.84711448 20.7279253,2.84711448 L20.7279253,2.84711448 Z" id="Path" fill="#B3B2B1"></path>
                    <path d="M28.4475643,2.55918408 L29.707711,0.00286287967 C29.707711,0.00286287967 32.468623,-0.0522194576 34.8500026,0.32083819 C37.2313823,0.691392096 39.4093524,1.26224541 39.3622209,1.28728284 L33.3244313,4.47454717 C33.3244313,4.47454717 31.9129678,3.57319983 30.1616615,3.01987272 C29.16942,2.72443109 28.4475643,2.55918408 28.4475643,2.55918408 L28.4475643,2.55918408 Z" id="Path" fill="#B3B2B1"></path>
                    <path d="M34.4059746,5.16808387 L35.7330976,6.18460337 L46.6403125,6.18460337 C46.6403125,6.18460337 46.617987,5.82907192 46.3277564,5.32331591 C46.1466723,5.00784435 45.816752,4.67234284 45.4719481,4.32432262 C45.3454373,4.19913548 44.8443553,3.80354415 44.4673035,3.55567364 C43.5048293,2.9247305 42.9665382,2.68186747 41.9668549,2.22368257 L34.4059746,5.16808387 L34.4059746,5.16808387 Z" id="Path" fill="#B3B2B1"></path>
                    <path d="M8.55064126,9.21663566 C8.14134164,9.21663566 7.75436745,9.37937893 7.42444714,9.56215214 L7.48150103,9.21663566 L6.39747717,9.21663566 L5.52926585,14.1665348 L6.61577031,14.1665348 L7.09700744,11.4249366 C7.19623159,10.8691058 7.60801182,10.1805766 8.41172745,10.1805766 L8.97234391,10.1780728 L9.14102496,9.21663566 L8.55064126,9.21663566 Z" id="Path" fill="#D13239" fill-rule="nonzero"></path>
                </g>
                <g id="logo_PayPo_Kolor" transform="translate(314.000000, 0.000000)" fill-rule="nonzero">
                    <rect id="Rectangle" fill="#A70584" x="4.5474631" y="9.08939873" width="3.40209209" height="3.39924088"></rect>
                    <rect id="Rectangle" fill="#36B588" x="4.53612279" y="4.47899975" width="3.40209209" height="3.42780593"></rect>
                    <rect id="Rectangle" fill="#FAD05B" x="1.20866591e-15" y="9.04940766" width="3.40209209" height="3.42780593"></rect>
                    <path d="M18.0934598,4.26190538 C18.0934598,6.62709147 16.2052987,8.52381075 13.7728028,8.52381075 L11.9186626,8.52381075 L11.9186626,12.4315095 L9.09492619,12.4315095 L9.09492619,8.11867535e-16 L13.7671327,8.11867535e-16 C16.2052987,8.11867535e-16 18.0934598,1.90243229 18.0934598,4.26190538 Z M15.2753935,4.26190538 C15.2753935,3.3535368 14.6403363,2.66226261 13.778473,2.66226261 L11.9243328,2.66226261 L11.9243328,5.86154815 L13.778473,5.86154815 C14.6346661,5.86154815 15.2753935,5.17027395 15.2753935,4.26190538 Z" id="Shape" fill="#000000"></path>
                    <path d="M27.9368462,3.30783273 L27.9368462,12.4315095 L25.2208427,12.4315095 L25.2208427,11.574558 C24.6254766,12.2658322 23.7352625,12.688595 22.5218496,12.688595 C20.1517255,12.688595 18.1955225,10.5919203 18.1955225,7.87252763 C18.1955225,5.15313492 20.1517255,3.05646029 22.5218496,3.05646029 C23.7352625,3.05646029 24.6198064,3.47351001 25.2208427,4.17049722 L25.2208427,3.31354574 L27.9368462,3.30783273 Z M25.2208427,7.87252763 C25.2208427,6.50711826 24.3136181,5.65016678 23.0661844,5.65016678 C21.8187506,5.65016678 20.9115261,6.50711826 20.9115261,7.87252763 C20.9115261,9.23793699 21.8187506,10.1006015 23.0661844,10.1006015 C24.3136181,10.1006015 25.2208427,9.23793699 25.2208427,7.87252763 Z" id="Shape" fill="#000000"></path>
                    <path d="M38.2508554,3.30783273 L35.1776322,12.0944419 C34.1683449,14.9737989 32.5693616,16.1164009 30.0518135,15.9907147 L30.0518135,13.4541383 C31.3105875,13.4541383 31.9059537,13.0542276 32.2971943,11.9516167 L28.7249976,3.30783273 L31.6904878,3.30783273 L33.6863819,8.84945232 L35.3760876,3.30783273 L38.2508554,3.30783273 Z" id="Path" fill="#000000"></path>
                    <path d="M48.3040375,4.26190538 C48.3040375,6.62709147 46.4158764,8.52381075 43.9833806,8.52381075 L42.1292404,8.52381075 L42.1292404,12.4315095 L39.305504,12.4315095 L39.305504,8.11867535e-16 L43.9777104,8.11867535e-16 C46.4158764,8.11867535e-16 48.3040375,1.90243229 48.3040375,4.26190538 Z M45.4803011,4.26190538 C45.4803011,3.3535368 44.8452439,2.66226261 43.9833806,2.66226261 L42.1292404,2.66226261 L42.1292404,5.86154815 L43.9833806,5.86154815 C44.8452439,5.86154815 45.4803011,5.17027395 45.4803011,4.26190538 Z" id="Shape" fill="#000000"></path>
                    <path d="M48.6555871,7.99250083 C48.6555871,5.34737726 50.7365334,3.30211972 53.3277935,3.30211972 C55.9190537,3.30211972 58,5.34737726 58,7.99250083 C58,10.6376244 55.9190537,12.682882 53.3277935,12.682882 C50.7365334,12.682882 48.6555871,10.6433374 48.6555871,7.99250083 Z M55.3577085,7.99250083 C55.3577085,6.72992565 54.4788347,5.89582621 53.3277935,5.89582621 C52.1767524,5.89582621 51.2978786,6.72992565 51.2978786,7.99250083 C51.2978786,9.25507602 52.1767524,10.0891755 53.3277935,10.0891755 C54.4788347,10.0891755 55.3577085,9.25507602 55.3577085,7.99250083 Z" id="Shape" fill="#000000"></path>
                </g>
                <g id="Google_Pay_Logo" transform="translate(151.000000, 0.000000)" fill-rule="nonzero">
                    <path d="M18.9065917,7.80012945 L18.9065917,12.4785832 L17.4070603,12.4785832 L17.4070603,0.908213709 L21.3058419,0.908213709 C22.2555451,0.908213709 23.155264,1.26035539 23.8550453,1.91433279 C24.5548266,2.51800425 24.9047173,3.42351142 24.9047173,4.37932456 C24.9047173,5.33513769 24.5548266,6.19033891 23.8550453,6.84431632 C23.155264,7.49829372 22.3055295,7.8504354 21.3058419,7.8504354 L18.9065917,7.80012945 L18.9065917,7.80012945 Z M18.9065917,2.31678043 L18.9065917,6.34125677 L21.4058107,6.34125677 C21.9556389,6.34125677 22.505467,6.14003296 22.8553577,5.73758532 C23.6551078,4.98299601 23.6551078,3.72534715 22.9053421,2.97075784 C22.9053421,2.97075784 22.8553577,2.92045188 22.8553577,2.92045188 C22.4554827,2.51800425 21.9556389,2.26647447 21.4058107,2.31678043 L18.9065917,2.31678043 L18.9065917,2.31678043 Z" id="Shape" fill="#5F6368"></path>
                    <path d="M28.3536395,4.3290186 C29.4532958,4.3290186 30.3030303,4.63085433 30.9528272,5.23452578 C31.6026242,5.83819723 31.9025305,6.6430925 31.9025305,7.64921159 L31.9025305,12.4785832 L30.5029678,12.4785832 L30.5029678,11.3718522 L30.4529834,11.3718522 C29.8531709,12.2773594 29.0034364,12.730113 28.0037488,12.730113 C27.1540144,12.730113 26.4042487,12.4785832 25.8044361,11.9755237 C25.2546079,11.4724641 24.9047173,10.7681808 24.9047173,10.0135914 C24.9047173,9.20869617 25.2046236,8.55471876 25.8044361,8.05165922 C26.4042487,7.54859968 27.2539831,7.34737586 28.2536707,7.34737586 C29.1533896,7.34737586 29.8531709,7.49829372 30.4029991,7.8504354 L30.4029991,7.49829372 C30.4029991,6.99523418 30.2030615,6.49217464 29.8031865,6.19033891 C29.4033115,5.83819723 28.9034677,5.63697341 28.3536395,5.63697341 C27.503905,5.63697341 26.8541081,5.98911509 26.4042487,6.69339845 L25.1046548,5.88850318 C25.9044049,4.83207814 26.9540769,4.3290186 28.3536395,4.3290186 Z M26.4542331,10.0638974 C26.4542331,10.466345 26.6541706,10.8184867 26.9540769,11.0197105 C27.3039675,11.2712403 27.7038425,11.4221582 28.1037176,11.4221582 C28.7035301,11.4221582 29.3033427,11.1706284 29.7532021,10.7178748 C30.2530459,10.2651212 30.5029678,9.71175571 30.5029678,9.10808426 C30.0531084,8.75594258 29.4033115,8.55471876 28.553577,8.55471876 C27.9537644,8.55471876 27.4539206,8.70563663 27.0540456,9.00747235 C26.6541706,9.25900212 26.4542331,9.6111438 26.4542331,10.0638974 Z" id="Shape" fill="#5F6368"></path>
                    <polygon id="Path" fill="#5F6368" points="40 4.58054837 35.0515464 16 33.552015 16 35.4014371 12.0258296 32.1524524 4.63085433 33.7519525 4.63085433 36.1012184 10.3154272 36.1512027 10.3154272 38.4504842 4.63085433 40 4.63085433"></polygon>
                    <path d="M12.9584505,6.79401036 C12.9584505,6.34125677 12.9084661,5.88850318 12.8584817,5.4357496 L6.61043424,5.4357496 L6.61043424,8.00135327 L10.1593252,8.00135327 C10.0093721,8.80624853 9.55951265,9.56083785 8.85973133,10.0135914 L8.85973133,11.6736879 L11.0090597,11.6736879 C12.2586692,10.516651 12.9584505,8.80624853 12.9584505,6.79401036 Z" id="Path" fill="#4285F4"></path>
                    <path d="M6.61043424,13.2834785 C8.40987192,13.2834785 9.90940331,12.679807 11.0090597,11.6736879 L8.85973133,10.0135914 C8.25991878,10.4160391 7.51015308,10.6675688 6.61043424,10.6675688 C4.91096532,10.6675688 3.41143393,9.51053189 2.91159013,7.90074136 L0.712277413,7.90074136 L0.712277413,9.6111438 C1.86191815,11.8749117 4.11121525,13.2834785 6.61043424,13.2834785 Z" id="Path" fill="#34A853"></path>
                    <path d="M2.91159013,7.90074136 C2.61168385,7.09584609 2.61168385,6.19033891 2.91159013,5.33513769 L2.91159013,3.62473524 L0.712277413,3.62473524 C-0.237425804,5.48605555 -0.237425804,7.69951754 0.712277413,9.6111438 L2.91159013,7.90074136 Z" id="Path" fill="#FBBC04"></path>
                    <path d="M6.61043424,2.61861615 C7.56013746,2.61861615 8.45985629,2.97075784 9.15963761,3.62473524 L9.15963761,3.62473524 L11.059044,1.71310898 C9.85941893,0.606377983 8.25991878,-0.0475994233 6.66041862,0.00270653104 C4.16119963,0.00270653104 1.86191815,1.41127325 0.762261793,3.6750412 L2.96157451,5.38544364 C3.41143393,3.7756531 4.91096532,2.61861615 6.61043424,2.61861615 Z" id="Path" fill="#EA4335"></path>
                </g>
            </g>
        </g>
    </g>
</svg>